<svg xmlns="http://www.w3.org/2000/svg" width="26" height="25" fill="none" viewBox="0 0 26 25">
  <path fill="#000" d="M11.356 1.782a1.613 1.613 0 0 1 2.605 0l1.817 2.487c.318.435.832.683 1.37.66l3.078-.13a1.613 1.613 0 0 1 1.624 2.037l-.812 2.971a1.613 1.613 0 0 0 .339 1.483l2.02 2.325a1.613 1.613 0 0 1-.58 2.54l-2.829 1.218c-.494.213-.85.66-.948 1.189l-.558 3.03a1.613 1.613 0 0 1-2.347 1.13l-2.716-1.453a1.612 1.612 0 0 0-1.521 0L9.18 22.721a1.613 1.613 0 0 1-2.346-1.13l-.558-3.029a1.613 1.613 0 0 0-.949-1.19L2.5 16.156a1.613 1.613 0 0 1-.58-2.54l2.02-2.325c.354-.407.481-.963.34-1.483l-.812-2.971A1.613 1.613 0 0 1 5.09 4.799l3.077.13a1.613 1.613 0 0 0 1.37-.66l1.818-2.487Z"/>
  <g clip-path="url(#a)">
    <path stroke="#fff" stroke-linecap="round" stroke-linejoin="round" stroke-width=".706" d="m16.237 8.92-6.351 6.352m.882-4.234a1.235 1.235 0 1 0 0-2.47 1.235 1.235 0 0 0 0 2.47Zm4.587 4.586a1.235 1.235 0 1 0 0-2.469 1.235 1.235 0 0 0 0 2.47Z"/>
  </g>
  <defs>
    <clipPath id="a">
      <path fill="#fff" d="M7.416 6.451h11.29v11.29H7.416z"/>
    </clipPath>
  </defs>
</svg>
